<?xml version="1.0" encoding="UTF-8" standalone="no"?>
<!-- Generator: Adobe Illustrator 17.0.0, SVG Export Plug-In . SVG Version: 6.00 Build 0)  -->

<svg
   xmlns:dc="http://purl.org/dc/elements/1.1/"
   xmlns:cc="http://creativecommons.org/ns#"
   xmlns:rdf="http://www.w3.org/1999/02/22-rdf-syntax-ns#"
   xmlns:svg="http://www.w3.org/2000/svg"
   xmlns="http://www.w3.org/2000/svg"
   xmlns:sodipodi="http://sodipodi.sourceforge.net/DTD/sodipodi-0.dtd"
   xmlns:inkscape="http://www.inkscape.org/namespaces/inkscape"
   version="1.1"
   id="Layer_1"
   x="0px"
   y="0px"
   width="69px"
   height="69px"
   viewBox="0 0 69 69"
   style="enable-background:new 0 0 69 69;"
   xml:space="preserve"
   inkscape:version="0.91 r13725"
   sodipodi:docname="icon-documentation.svg"><metadata
   id="metadata4699"><rdf:RDF><cc:Work
       rdf:about=""><dc:format>image/svg+xml</dc:format><dc:type
         rdf:resource="http://purl.org/dc/dcmitype/StillImage" /></cc:Work></rdf:RDF></metadata><defs
   id="defs4697" /><sodipodi:namedview
   pagecolor="#ffffff"
   bordercolor="#666666"
   borderopacity="1"
   objecttolerance="10"
   gridtolerance="10"
   guidetolerance="10"
   inkscape:pageopacity="0"
   inkscape:pageshadow="2"
   inkscape:window-width="671"
   inkscape:window-height="480"
   id="namedview4695"
   showgrid="false"
   inkscape:zoom="3.4202899"
   inkscape:cx="34.5"
   inkscape:cy="34.5"
   inkscape:window-x="0"
   inkscape:window-y="0"
   inkscape:window-maximized="0"
   inkscape:current-layer="Layer_1" />
<style
   type="text/css"
   id="style4691">
	.st0{fill:#F36523;}
</style>
<path
   class="st0"
   d="M58.682,11.591h-6.364V7.773c0-0.703-0.569-1.273-1.273-1.273H12.864c-0.703,0-1.273,0.569-1.273,1.273v6.364  h-1.273c-0.703,0-1.273,0.569-1.273,1.273s0.569,1.273,1.273,1.273h1.273v5.091h-1.273c-0.703,0-1.273,0.569-1.273,1.273  c0,0.703,0.569,1.273,1.273,1.273h1.273v5.091h-1.273c-0.703,0-1.273,0.569-1.273,1.273c0,0.703,0.569,1.273,1.273,1.273h1.273  v5.091h-1.273c-0.703,0-1.273,0.569-1.273,1.273s0.569,1.273,1.273,1.273h1.273v5.091h-1.273c-0.703,0-1.273,0.569-1.273,1.273  s0.569,1.273,1.273,1.273h1.273v5.091h-1.273c-0.703,0-1.273,0.569-1.273,1.273s0.569,1.273,1.273,1.273h1.273v6.364  c0,0.703,0.569,1.273,1.273,1.273h38.182c0.703,0,1.273-0.569,1.273-1.273v-6.364h6.364c0.703,0,1.273-0.569,1.273-1.273V43.409  V33.227V23.045V12.864C59.955,12.16,59.385,11.591,58.682,11.591z M49.773,12.864v10.182v10.182V43.41v10.182v6.364H14.136v-5.091  h1.273c0.703,0,1.273-0.569,1.273-1.273s-0.569-1.273-1.273-1.273h-1.273v-5.091h1.273c0.703,0,1.273-0.569,1.273-1.273  s-0.569-1.273-1.273-1.273h-1.273v-5.091h1.273c0.703,0,1.273-0.569,1.273-1.273s-0.569-1.273-1.273-1.273h-1.273v-5.091h1.273  c0.703,0,1.273-0.569,1.273-1.273c0-0.703-0.569-1.273-1.273-1.273h-1.273v-5.091h1.273c0.703,0,1.273-0.569,1.273-1.273  c0-0.703-0.569-1.273-1.273-1.273h-1.273V16.68h1.273c0.703,0,1.273-0.569,1.273-1.273s-0.569-1.273-1.273-1.273h-1.273V9.045  h35.636L49.773,12.864L49.773,12.864z M57.409,52.318h-5.091v-7.636h5.091V52.318z M57.409,42.136h-5.091V34.5h5.091V42.136z   M57.409,31.955h-5.091v-7.636h5.091V31.955z M57.409,21.773h-5.091v-7.636h5.091V21.773z M25.591,29.409h15.273  c0.703,0,1.273-0.569,1.273-1.273V17.955c0-0.703-0.569-1.273-1.273-1.273H25.591c-0.703,0-1.273,0.569-1.273,1.273v10.182  C24.318,28.84,24.887,29.409,25.591,29.409z M26.864,19.227h12.727v7.636H26.864V19.227z"
   id="path4693"
   style="fill:#22aef2;fill-opacity:1" />
</svg>